<?xml version="1.0" standalone="no"?>
<!DOCTYPE svg PUBLIC "-//W3C//DTD SVG 20010904//EN"
 "http://www.w3.org/TR/2001/REC-SVG-20010904/DTD/svg10.dtd">
<svg version="1.0" xmlns="http://www.w3.org/2000/svg"
 width="160.000000pt" height="160.000000pt" viewBox="0 0 160.000000 160.000000"
 preserveAspectRatio="xMidYMid meet">
<metadata>
Created by potrace 1.11, written by Peter Selinger 2001-2013
</metadata>
<g transform="translate(0.000000,160.000000) scale(0.100000,-0.100000)"
fill="#000000" stroke="none">
<path d="M970 1550 c0 -11 -4 -20 -10 -20 -15 0 -12 -57 3 -63 7 -4 4 -8 -10
-12 -18 -6 -20 -11 -12 -32 13 -35 11 -43 -11 -43 -13 0 -22 -9 -26 -25 -5
-20 -9 -23 -24 -15 -22 12 -29 4 -32 -39 -2 -31 -3 -31 -43 -25 -110 16 -172
20 -181 11 -4 -3 -16 -2 -27 4 -14 8 -18 8 -13 0 6 -10 -4 -12 -84 -13 -3 -1
-20 2 -37 5 -30 6 -33 4 -33 -18 0 -24 20 -50 54 -70 16 -9 15 -15 -2 -82 -10
-41 -14 -69 -8 -65 6 3 26 7 44 8 18 0 42 10 55 22 16 15 36 22 64 22 42 0 53
-11 53 -51 0 -12 7 -19 19 -19 11 0 21 -6 24 -12 2 -7 8 -9 13 -5 5 4 2 12 -5
16 -7 5 -10 14 -6 20 5 9 10 9 21 0 11 -9 14 -8 14 8 0 22 73 94 114 111 15 7
36 10 45 7 18 -6 45 -60 37 -74 -4 -5 4 -17 16 -25 17 -12 20 -18 10 -28 -7
-7 -12 -20 -12 -29 0 -9 -6 -19 -14 -22 -15 -6 -27 -75 -14 -83 4 -3 1 -12 -7
-20 -8 -9 -15 -24 -15 -34 0 -10 -6 -21 -12 -23 -10 -4 -10 -6 0 -6 20 -2 13
-17 -14 -29 -15 -7 -22 -17 -18 -24 5 -8 2 -9 -9 -5 -11 4 -17 1 -17 -8 0 -17
25 -20 35 -5 3 5 12 7 20 3 8 -3 15 0 15 6 0 6 5 11 10 11 22 0 8 -17 -34 -40
-45 -24 -51 -40 -15 -40 11 0 18 3 16 8 -3 4 1 13 9 20 11 10 13 7 8 -20 -4
-26 -3 -30 5 -18 9 12 10 9 5 -14 -6 -23 -4 -27 7 -21 11 7 12 6 2 -6 -11 -14
-13 -19 -13 -40 0 -8 -5 -8 -15 1 -8 7 -15 21 -15 31 0 10 -9 23 -20 29 -16 9
-18 8 -14 -5 4 -8 10 -15 15 -15 5 0 8 -3 7 -7 -1 -5 4 -18 12 -30 10 -16 21
-21 37 -17 25 7 30 -5 11 -24 -15 -15 -31 -16 -22 0 4 6 3 8 -3 5 -5 -3 -15
-24 -23 -46 -7 -23 -19 -41 -27 -41 -8 0 -12 -4 -9 -9 3 -5 -2 -8 -12 -7 -12
1 -17 -6 -17 -26 0 -14 -3 -29 -6 -32 -7 -7 -59 14 -59 23 0 3 -26 6 -57 7
-32 0 -116 8 -188 17 -72 9 -142 18 -158 19 -77 6 14 35 138 43 87 6 135 21
215 69 14 8 33 17 43 20 23 7 22 37 -3 43 -16 4 -18 8 -9 19 9 11 7 14 -8 14
-10 0 -24 5 -31 12 -9 9 -12 7 -12 -9 0 -11 -6 -23 -13 -26 -29 -11 -162 4
-252 28 -53 14 -104 27 -114 28 -11 2 -26 9 -35 16 -13 11 -17 9 -26 -14 -17
-44 -12 -55 35 -75 25 -11 45 -25 45 -33 0 -7 -11 -45 -24 -83 -21 -63 -22
-72 -9 -109 8 -22 19 -78 24 -125 13 -111 24 -144 60 -180 44 -44 106 -57 372
-81 198 -17 254 -19 315 -10 102 15 169 52 202 111 25 45 25 46 25 295 l-1
250 -42 193 c-23 106 -49 250 -58 319 -21 167 -57 313 -80 330 -18 13 -59 26
-121 37 -28 5 -33 3 -33 -14z m70 -370 c0 -5 -2 -10 -4 -10 -3 0 -8 5 -11 10
-3 6 -1 10 4 10 6 0 11 -4 11 -10z m24 -51 c7 -37 -2 -81 -17 -76 -26 8 -35
41 -21 75 18 40 30 41 38 1z m68 -146 c26 -23 23 -41 -6 -36 -33 7 -50 -27
-42 -80 5 -31 3 -42 -11 -52 -10 -7 -18 -23 -18 -36 0 -31 -21 -35 -27 -4 -3
14 -1 25 4 25 5 0 2 7 -7 16 -9 10 -13 24 -10 36 4 10 1 25 -5 33 -9 11 -9 15
-1 15 6 0 11 13 11 29 0 17 5 33 10 36 6 4 8 10 5 15 -5 8 15 13 64 19 8 0 23
-6 33 -16z m8 -198 c0 -2 -10 -9 -22 -15 -22 -11 -22 -10 -4 4 21 17 26 19 26
11z m-236 -527 c-3 -5 -13 -8 -22 -9 -11 0 -12 -2 -4 -6 8 -3 5 -11 -12 -24
-13 -10 -28 -19 -32 -19 -4 0 1 7 12 16 17 14 17 15 1 10 -10 -3 -27 -6 -38
-6 -10 0 -19 -7 -19 -15 0 -8 -5 -15 -11 -15 -5 0 -7 5 -4 10 3 6 2 10 -3 10
-6 0 -8 9 -5 19 3 11 10 18 16 16 7 -3 26 7 42 20 26 22 28 25 10 26 -16 1
-15 2 5 8 18 5 31 2 47 -13 12 -11 19 -24 17 -28z m-169 -5 c-8 -55 -25 -66
-25 -16 0 35 6 47 28 52 2 1 1 -16 -3 -36z m65 11 c0 -8 -5 -12 -10 -9 -6 4
-8 11 -5 16 9 14 15 11 15 -7z m-131 -46 c-8 -14 -14 -17 -22 -9 -7 7 -6 15 3
25 17 22 32 9 19 -16z"/>
<path d="M576 957 c-26 -24 -35 -38 -30 -51 5 -14 2 -16 -20 -10 -14 3 -26 2
-26 -2 0 -20 17 -29 50 -29 32 0 35 3 41 35 3 19 11 47 17 63 6 15 10 27 9 27
-2 0 -20 -15 -41 -33z"/>
</g>
</svg>
